<svg width="196" height="196" viewBox="0 0 196 196" fill="none" xmlns="http://www.w3.org/2000/svg">
<g clip-path="url(#clip0_3_15)">
<circle cx="98" cy="98" r="78.8594" fill="#E39A7B"/>
<path d="M116.905 104.544V93.5265C116.905 75.3624 116.012 63.8981 114.225 59.1337C112.24 53.6746 109.411 50.2998 105.739 49.0094C103.654 48.2154 101.123 47.8184 98.1454 47.8184C95.1677 47.8184 92.587 48.2154 90.4033 49.0094C88.3189 49.8035 86.5819 51.1931 85.1923 53.1783C83.8027 55.1634 82.6612 57.2478 81.7679 59.4315C80.9738 61.6152 80.3287 64.6922 79.8324 68.6625C79.2368 74.4194 78.9391 82.9059 78.9391 94.1221V104.842C78.9391 116.951 79.3857 125.587 80.279 130.748C81.2716 135.81 82.4627 139.433 83.8523 141.617C86.9293 146.48 91.6937 148.912 98.1454 148.912C105.987 148.912 111.049 145.637 113.332 139.086C115.714 132.436 116.905 120.922 116.905 104.544ZM97.8476 152.039C81.2716 152.039 68.8644 147.572 60.626 138.639C52.4869 129.607 48.4173 116.604 48.4173 99.6309C48.4173 82.5585 52.7847 69.1588 61.5193 59.4315C70.3533 49.605 82.8101 44.6917 98.8898 44.6917C114.97 44.6917 127.079 49.3568 135.218 58.6871C143.457 67.918 147.576 81.0697 147.576 98.142C147.576 115.214 143.407 128.465 135.069 137.895C126.831 147.324 114.424 152.039 97.8476 152.039Z" fill="white"/>
</g>
<defs>
<clipPath id="clip0_3_15">
<rect width="196" height="196" fill="white"/>
</clipPath>
</defs>
</svg>
